<svg width="80" height="80" viewBox="0 0 80 80" fill="none" xmlns="http://www.w3.org/2000/svg">
<path d="M52.1875 6.25C52.1875 5.58696 51.9241 4.95107 51.4553 4.48223C50.9864 4.01339 50.3505 3.75 49.6875 3.75H31.875C31.212 3.75 30.5761 4.01339 30.1072 4.48223C29.6384 4.95107 29.375 5.58696 29.375 6.25V25.6531C29.375 26.3162 29.6384 26.9521 30.1072 27.4209C30.5761 27.8897 31.212 28.1531 31.875 28.1531H49.6875C50.3505 28.1531 50.9864 27.8897 51.4553 27.4209C51.9241 26.9521 52.1875 26.3162 52.1875 25.6531V6.25ZM36.7188 15.3906C35.9238 14.721 35.354 13.8232 35.0864 12.8188C34.8189 11.8145 34.8666 10.7522 35.223 9.77582C35.5794 8.79948 36.2274 7.95631 37.0791 7.36056C37.9308 6.76481 38.945 6.44529 39.9844 6.44529C41.0237 6.44529 42.038 6.76481 42.8897 7.36056C43.7414 7.95631 44.3893 8.79948 44.7458 9.77582C45.1022 10.7522 45.1499 11.8145 44.8823 12.8188C44.6148 13.8232 44.0449 14.721 43.25 15.3906L43.0344 15.5719L43.3031 15.6562C44.7778 16.121 46.0655 17.0447 46.9784 18.2927C47.8913 19.5406 48.3817 21.0475 48.3781 22.5938V24.8281C48.3781 24.9939 48.3123 25.1529 48.1951 25.2701C48.0779 25.3873 47.9189 25.4531 47.7531 25.4531H32.2281C32.0624 25.4531 31.9034 25.3873 31.7862 25.2701C31.669 25.1529 31.6031 24.9939 31.6031 24.8281V22.5938C31.5995 21.0475 32.0899 19.5406 33.0029 18.2927C33.9158 17.0447 35.2034 16.121 36.6781 15.6562L36.9469 15.5719L36.7188 15.3906Z" fill="#40BDFF"/>
<path d="M39.5844 15.3125H40.4125C41.3836 15.2066 42.2773 14.7325 42.9095 13.9878C43.5418 13.2431 43.8646 12.2844 43.8116 11.3089C43.7585 10.3335 43.3337 9.41542 42.6244 8.74366C41.9151 8.0719 40.9753 7.69751 39.9984 7.69751C39.0215 7.69751 38.0818 8.0719 37.3725 8.74366C36.6632 9.41542 36.2384 10.3335 36.1853 11.3089C36.1323 12.2844 36.4551 13.2431 37.0874 13.9878C37.7196 14.7325 38.6132 15.2066 39.5844 15.3125V15.3125Z" fill="#EFFAFE"/>
<path d="M32.8531 22.5938V24.2031H47.1437V22.5938C47.1421 20.9952 46.5065 19.4626 45.3765 18.3319C44.2465 17.2013 42.7142 16.565 41.1156 16.5625H38.8812C37.2827 16.565 35.7504 17.2013 34.6204 18.3319C33.4903 19.4626 32.8548 20.9952 32.8531 22.5938Z" fill="#EFFAFE"/>
<path d="M56.9031 70.6906V72.3H71.1938V70.6906C71.1913 69.0926 70.5554 67.5608 69.4254 66.4308C68.2955 65.3009 66.7636 64.665 65.1656 64.6625H62.9313C61.3333 64.665 59.8014 65.3009 58.6715 66.4308C57.5415 67.5608 56.9056 69.0926 56.9031 70.6906V70.6906Z" fill="#EFFAFE"/>
<path d="M73.75 51.8468H55.9094C55.2463 51.8468 54.6104 52.1102 54.1416 52.579C53.6728 53.0479 53.4094 53.6838 53.4094 54.3468V73.7499C53.4094 74.413 53.6728 75.0489 54.1416 75.5177C54.6104 75.9865 55.2463 76.2499 55.9094 76.2499H73.75C74.413 76.2499 75.0489 75.9865 75.5178 75.5177C75.9866 75.0489 76.25 74.413 76.25 73.7499V54.3468C76.25 53.6838 75.9866 53.0479 75.5178 52.579C75.0489 52.1102 74.413 51.8468 73.75 51.8468ZM58.9781 59.6156C58.9781 58.2712 59.5121 56.982 60.4627 56.0314C61.4133 55.0808 62.7025 54.5468 64.0469 54.5468C65.3912 54.5468 66.6804 55.0808 67.631 56.0314C68.5816 56.982 69.1156 58.2712 69.1156 59.6156C69.1156 61.1593 68.4906 62.4906 67.0969 63.6781C70.6594 64.8124 72.4437 67.6937 72.4437 70.6999V72.9343C72.4437 73.1001 72.3779 73.259 72.2607 73.3762C72.1435 73.4935 71.9845 73.5593 71.8187 73.5593H56.2781C56.1123 73.5593 55.9534 73.4935 55.8362 73.3762C55.719 73.259 55.6531 73.1001 55.6531 72.9343V70.6999C55.6531 67.6749 57.45 64.8062 61 63.6781C59.6062 62.4999 58.9781 61.1593 58.9781 59.6156V59.6156Z" fill="#FFDD00"/>
<path d="M63.6344 63.4094H64.4625C65.4336 63.3035 66.3273 62.8294 66.9595 62.0847C67.5918 61.34 67.9146 60.3813 67.8616 59.4058C67.8085 58.4304 67.3837 57.5123 66.6744 56.8406C65.9651 56.1688 65.0253 55.7944 64.0484 55.7944C63.0715 55.7944 62.1318 56.1688 61.4225 56.8406C60.7132 57.5123 60.2884 58.4304 60.2353 59.4058C60.1823 60.3813 60.5051 61.34 61.1373 62.0847C61.7696 62.8294 62.6632 63.3035 63.6344 63.4094Z" fill="#EFFAFE"/>
<path d="M8.80624 70.6906V72.3H23.0969V70.6906C23.0944 69.0926 22.4585 67.5608 21.3285 66.4308C20.1986 65.3009 18.6667 64.665 17.0687 64.6625H14.8344C13.2364 64.665 11.7045 65.3009 10.5746 66.4308C9.44462 67.5608 8.80872 69.0926 8.80624 70.6906V70.6906Z" fill="#EFFAFE"/>
<path d="M25.6531 51.8468H7.8125C7.14946 51.8468 6.51357 52.1102 6.04473 52.579C5.57589 53.0479 5.3125 53.6838 5.3125 54.3468V73.7499C5.3125 74.413 5.57589 75.0489 6.04473 75.5177C6.51357 75.9865 7.14946 76.2499 7.8125 76.2499H25.6531C26.3162 76.2499 26.9521 75.9865 27.4209 75.5177C27.8897 75.0489 28.1531 74.413 28.1531 73.7499V54.3468C28.1531 53.6838 27.8897 53.0479 27.4209 52.579C26.9521 52.1102 26.3162 51.8468 25.6531 51.8468ZM12.6844 63.4874C11.8895 62.8178 11.3196 61.92 11.0521 60.9156C10.7845 59.9113 10.8322 58.849 11.1886 57.8726C11.545 56.8963 12.193 56.0531 13.0447 55.4574C13.8964 54.8616 14.9106 54.5421 15.95 54.5421C16.9894 54.5421 18.0036 54.8616 18.8553 55.4574C19.707 56.0531 20.355 56.8963 20.7114 57.8726C21.0678 58.849 21.1155 59.9113 20.8479 60.9156C20.5804 61.92 20.0105 62.8178 19.2156 63.4874L19 63.6687L19.2687 63.753C20.7434 64.2178 22.0311 65.1415 22.944 66.3895C23.8569 67.6374 24.3473 69.1443 24.3438 70.6906V72.9249C24.3438 73.0907 24.2779 73.2497 24.1607 73.3669C24.0435 73.4841 23.8845 73.5499 23.7188 73.5499H8.18125C8.01549 73.5499 7.85652 73.4841 7.73931 73.3669C7.6221 73.2497 7.55625 73.0907 7.55625 72.9249V70.6906C7.55199 69.1438 8.04209 67.6362 8.95505 66.3876C9.868 65.139 11.156 64.2149 12.6312 63.7499L12.9 63.6655L12.6844 63.4874Z" fill="#EB5639"/>
<path d="M15.5375 63.4094H16.3656C17.3368 63.3035 18.2304 62.8294 18.8627 62.0847C19.4949 61.34 19.8177 60.3813 19.7647 59.4058C19.7116 58.4304 19.2868 57.5123 18.5775 56.8406C17.8682 56.1688 16.9285 55.7944 15.9516 55.7944C14.9747 55.7944 14.0349 56.1688 13.3256 56.8406C12.6164 57.5123 12.1915 58.4304 12.1384 59.4058C12.0854 60.3813 12.4082 61.34 13.0405 62.0847C13.6727 62.8294 14.5664 63.3035 15.5375 63.4094V63.4094Z" fill="#EFFAFE"/>
<path d="M17.0688 64.6625H15.5063C17.1043 64.665 18.6361 65.3009 19.766 66.4308C20.896 67.5608 21.5319 69.0926 21.5344 70.6906V72.3H23.0969V70.6906C23.0944 69.0926 22.4585 67.5608 21.3285 66.4308C20.1986 65.3009 18.6668 64.665 17.0688 64.6625V64.6625Z" fill="#E4EBED"/>
<path d="M15.9375 55.7969C15.675 55.7971 15.4132 55.8243 15.1562 55.8781C16.0143 56.058 16.7844 56.5277 17.3371 57.2083C17.8898 57.8889 18.1915 58.7389 18.1915 59.6156C18.1915 60.4924 17.8898 61.3424 17.3371 62.023C16.7844 62.7036 16.0143 63.1732 15.1562 63.3531C15.275 63.3781 15.4 63.3969 15.5219 63.4125H16.35C17.3222 63.308 18.2173 62.8345 18.8508 62.0897C19.4843 61.3449 19.8079 60.3854 19.755 59.4091C19.7021 58.4327 19.2767 57.5138 18.5665 56.8418C17.8563 56.1698 16.9153 55.7958 15.9375 55.7969V55.7969Z" fill="#E4EBED"/>
<path d="M65.1656 64.6625H63.6031C65.2011 64.665 66.733 65.3009 67.8629 66.4308C68.9929 67.5608 69.6288 69.0926 69.6312 70.6906V72.3H71.1937V70.6906C71.1913 69.0926 70.5554 67.5608 69.4254 66.4308C68.2955 65.3009 66.7636 64.665 65.1656 64.6625V64.6625Z" fill="#E4EBED"/>
<path d="M64.0625 55.7969C63.8 55.7971 63.5382 55.8243 63.2812 55.8781C64.1393 56.058 64.9094 56.5277 65.4621 57.2083C66.0148 57.8889 66.3165 58.7389 66.3165 59.6156C66.3165 60.4924 66.0148 61.3424 65.4621 62.023C64.9094 62.7036 64.1393 63.1732 63.2812 63.3531C63.4 63.3781 63.525 63.3969 63.6469 63.4125H64.475C65.4472 63.308 66.3423 62.8345 66.9758 62.0897C67.6093 61.3449 67.9329 60.3854 67.88 59.4091C67.8271 58.4327 67.4018 57.5138 66.6915 56.8418C65.9813 56.1698 65.0403 55.7958 64.0625 55.7969V55.7969Z" fill="#E4EBED"/>
<path d="M41.1156 16.5625H39.5531C41.1522 16.5642 42.6853 17.2001 43.816 18.3308C44.9468 19.4616 45.5827 20.9947 45.5844 22.5938V24.2031H47.1469V22.5938C47.1452 20.9947 46.5093 19.4616 45.3785 18.3308C44.2478 17.2001 42.7147 16.5642 41.1156 16.5625V16.5625Z" fill="#E4EBED"/>
<path d="M40 7.69995C39.7375 7.70013 39.4757 7.72736 39.2188 7.7812C40.0768 7.9611 40.8469 8.43077 41.3996 9.11135C41.9523 9.79193 42.254 10.642 42.254 11.5187C42.254 12.3954 41.9523 13.2455 41.3996 13.9261C40.8469 14.6066 40.0768 15.0763 39.2188 15.2562C39.3375 15.2812 39.4625 15.3 39.5844 15.3156H40.4125C41.3847 15.2111 42.2798 14.7376 42.9133 13.9928C43.5468 13.248 43.8704 12.2885 43.8175 11.3122C43.7646 10.3358 43.3393 9.41692 42.629 8.74487C41.9188 8.07283 40.9778 7.69884 40 7.69995V7.69995Z" fill="#E4EBED"/>
<path d="M49.6875 3.75H48.125C48.788 3.75 49.4239 4.01339 49.8928 4.48223C50.3616 4.95107 50.625 5.58696 50.625 6.25V25.6531C50.625 26.3162 50.3616 26.9521 49.8928 27.4209C49.4239 27.8897 48.788 28.1531 48.125 28.1531H49.6875C50.3505 28.1531 50.9864 27.8897 51.4553 27.4209C51.9241 26.9521 52.1875 26.3162 52.1875 25.6531V6.25C52.1875 5.58696 51.9241 4.95107 51.4553 4.48223C50.9864 4.01339 50.3505 3.75 49.6875 3.75Z" fill="#2197F7"/>
<path d="M25.6531 51.8468H24.0906C24.7537 51.8468 25.3896 52.1102 25.8584 52.579C26.3272 53.0479 26.5906 53.6838 26.5906 54.3468V73.7499C26.5906 74.413 26.3272 75.0489 25.8584 75.5177C25.3896 75.9865 24.7537 76.2499 24.0906 76.2499H25.6531C26.3162 76.2499 26.9521 75.9865 27.4209 75.5177C27.8897 75.0489 28.1531 74.413 28.1531 73.7499V54.3468C28.1531 53.6838 27.8897 53.0479 27.4209 52.579C26.9521 52.1102 26.3162 51.8468 25.6531 51.8468Z" fill="#D84936"/>
<path d="M73.75 51.8468H72.1875C72.8505 51.8468 73.4864 52.1102 73.9553 52.579C74.4241 53.0479 74.6875 53.6838 74.6875 54.3468V73.7499C74.6875 74.413 74.4241 75.0489 73.9553 75.5177C73.4864 75.9865 72.8505 76.2499 72.1875 76.2499H73.75C74.413 76.2499 75.0489 75.9865 75.5178 75.5177C75.9866 75.0489 76.25 74.413 76.25 73.7499V54.3468C76.25 53.6838 75.9866 53.0479 75.5178 52.579C75.0489 52.1102 74.413 51.8468 73.75 51.8468Z" fill="#EFC803"/>
<path d="M43.3687 15.5094C44.1879 14.819 44.7751 13.8935 45.0507 12.8582C45.3263 11.823 45.277 10.728 44.9095 9.72172C44.542 8.71541 43.8741 7.84638 42.9962 7.23238C42.1183 6.61837 41.0729 6.28906 40.0016 6.28906C38.9302 6.28906 37.8848 6.61837 37.0069 7.23238C36.129 7.84638 35.4611 8.71541 35.0936 9.72172C34.7261 10.728 34.6768 11.823 34.9524 12.8582C35.228 13.8935 35.8152 14.819 36.6344 15.5094C35.1306 15.9882 33.8178 16.9324 32.8854 18.2057C31.953 19.479 31.4493 21.0156 31.4469 22.5938V24.8281C31.4469 25.0353 31.5292 25.2341 31.6757 25.3806C31.8222 25.5271 32.0209 25.6094 32.2281 25.6094H47.7687C47.9759 25.6094 48.1747 25.5271 48.3212 25.3806C48.4677 25.2341 48.55 25.0353 48.55 24.8281V22.5938C48.548 21.0164 48.0451 19.4804 47.114 18.2072C46.1828 16.9339 44.8714 15.9893 43.3687 15.5094V15.5094ZM36.3375 11.5188C36.3375 10.8115 36.5423 10.1193 36.9272 9.52585C37.3121 8.93242 37.8606 8.46314 38.5064 8.17469C39.1522 7.88624 39.8678 7.79097 40.5666 7.90039C41.2654 8.00981 41.9175 8.31923 42.4443 8.79128C42.971 9.26333 43.3498 9.8778 43.5349 10.5605C43.72 11.2431 43.7034 11.9648 43.4872 12.6383C43.271 13.3117 42.8644 13.9082 42.3166 14.3556C41.7687 14.803 41.1031 15.0821 40.4 15.1594H39.6031C38.7061 15.0609 37.877 14.635 37.2744 13.9633C36.6719 13.2916 36.3383 12.4212 36.3375 11.5188V11.5188ZM46.9906 24.0625H33.0094V22.5938C33.011 21.037 33.6302 19.5444 34.731 18.4436C35.8319 17.3427 37.3244 16.7235 38.8812 16.7219H41.1156C42.673 16.7227 44.1663 17.3415 45.2678 18.4425C46.3694 19.5434 46.989 21.0364 46.9906 22.5938V24.0625Z" fill="#263238"/>
<path d="M53.6094 25.6531V6.25002C53.609 5.73584 53.5071 5.2268 53.3097 4.75203C53.1123 4.27727 52.8231 3.84612 52.4588 3.48327C52.0945 3.12042 51.6622 2.83299 51.1867 2.63746C50.7111 2.44193 50.2017 2.34213 49.6875 2.34377H30.3125C29.7983 2.34213 29.2889 2.44193 28.8133 2.63746C28.3378 2.83299 27.9055 3.12042 27.5412 3.48327C27.1769 3.84612 26.8877 4.27727 26.6903 4.75203C26.4929 5.2268 26.391 5.73584 26.3906 6.25002V25.6531C26.391 26.1673 26.4929 26.6764 26.6903 27.1511C26.8877 27.6259 27.1769 28.057 27.5412 28.4199C27.9055 28.7827 28.3378 29.0702 28.8133 29.2657C29.2889 29.4612 29.7983 29.561 30.3125 29.5594H49.6875C50.2017 29.561 50.7111 29.4612 51.1867 29.2657C51.6622 29.0702 52.0945 28.7827 52.4588 28.4199C52.8231 28.057 53.1123 27.6259 53.3097 27.1511C53.5071 26.6764 53.609 26.1673 53.6094 25.6531V25.6531ZM27.9563 25.6531V6.25002C27.9567 5.9413 28.018 5.63569 28.1367 5.3507C28.2554 5.06571 28.4292 4.80695 28.6481 4.58923C28.8669 4.37151 29.1266 4.19911 29.4122 4.08192C29.6979 3.96473 30.0038 3.90504 30.3125 3.90627H49.6875C50.3089 3.9071 50.9045 4.15429 51.3439 4.59365C51.7832 5.03301 52.0304 5.62867 52.0313 6.25002V25.6531C52.0304 26.2745 51.7832 26.8702 51.3439 27.3095C50.9045 27.7489 50.3089 27.9961 49.6875 27.9969H30.3125C30.0035 27.9985 29.6973 27.9392 29.4113 27.8221C29.1253 27.7051 28.8652 27.5328 28.646 27.315C28.4268 27.0973 28.2528 26.8384 28.1339 26.5532C28.015 26.268 27.9535 25.9621 27.9531 25.6531H27.9563Z" fill="#263238"/>
<path d="M8.18124 73.7063H23.7219C23.9291 73.7063 24.1278 73.624 24.2743 73.4774C24.4208 73.3309 24.5031 73.1322 24.5031 72.925V70.6906C24.5016 69.1123 23.9986 67.5753 23.0667 66.3014C22.1349 65.0275 20.8225 64.0827 19.3187 63.6031C20.1379 62.9128 20.7251 61.9872 21.0007 60.952C21.2763 59.9167 21.227 58.8218 20.8595 57.8155C20.492 56.8092 19.8241 55.9401 18.9462 55.3261C18.0683 54.7121 17.0229 54.3828 15.9516 54.3828C14.8802 54.3828 13.8348 54.7121 12.9569 55.3261C12.079 55.9401 11.4111 56.8092 11.0436 57.8155C10.6761 58.8218 10.6268 59.9167 10.9024 60.952C11.178 61.9872 11.7652 62.9128 12.5844 63.6031C11.0807 64.0827 9.76819 65.0275 8.83636 66.3014C7.90454 67.5753 7.40155 69.1123 7.39999 70.6906V72.925C7.39999 73.1322 7.4823 73.3309 7.62882 73.4774C7.77533 73.624 7.97404 73.7063 8.18124 73.7063V73.7063ZM12.2906 59.6156C12.2906 58.9083 12.4954 58.2162 12.8803 57.6227C13.2652 57.0293 13.8137 56.56 14.4595 56.2716C15.1054 55.9831 15.8209 55.8879 16.5197 55.9973C17.2185 56.1067 17.8707 56.4161 18.3974 56.8882C18.9241 57.3602 19.3029 57.9747 19.488 58.6573C19.6731 59.34 19.6565 60.0617 19.4403 60.7351C19.2241 61.4086 18.8176 62.0051 18.2697 62.4524C17.7219 62.8998 17.0562 63.179 16.3531 63.2563H15.5531C14.6567 63.1571 13.8283 62.7309 13.2264 62.0592C12.6245 61.3876 12.2913 60.5176 12.2906 59.6156V59.6156ZM8.96249 70.6906C8.96415 69.1338 9.58332 67.6413 10.6842 66.5404C11.785 65.4396 13.2776 64.8204 14.8344 64.8188H17.0687C18.6256 64.8204 20.1181 65.4396 21.219 66.5404C22.3198 67.6413 22.939 69.1338 22.9406 70.6906V72.1438H8.96249V70.6906Z" fill="#263238"/>
<path d="M6.25 77.6562H25.6531C26.6889 77.6553 27.682 77.2435 28.4143 76.5111C29.1467 75.7788 29.5585 74.7857 29.5594 73.7499V54.3468C29.5585 53.3111 29.1467 52.318 28.4143 51.5856C27.682 50.8532 26.6889 50.4414 25.6531 50.4406H6.25C5.21425 50.4414 4.22116 50.8532 3.48878 51.5856C2.75639 52.318 2.34458 53.3111 2.34375 54.3468V73.7499C2.34458 74.7857 2.75639 75.7788 3.48878 76.5111C4.22116 77.2435 5.21425 77.6553 6.25 77.6562ZM3.90625 54.3468C3.90708 53.7255 4.15427 53.1298 4.59363 52.6904C5.03299 52.2511 5.62865 52.0039 6.25 52.0031H25.6531C26.2745 52.0039 26.8701 52.2511 27.3095 52.6904C27.7489 53.1298 27.996 53.7255 27.9969 54.3468V73.7499C27.996 74.3713 27.7489 74.9669 27.3095 75.4063C26.8701 75.8457 26.2745 76.0928 25.6531 76.0937H6.25C5.62865 76.0928 5.03299 75.8457 4.59363 75.4063C4.15427 74.9669 3.90708 74.3713 3.90625 73.7499V54.3468Z" fill="#263238"/>
<path d="M67.4156 63.6031C68.2348 62.9128 68.822 61.9872 69.0976 60.952C69.3732 59.9167 69.3239 58.8218 68.9564 57.8155C68.5889 56.8092 67.921 55.9401 67.0431 55.3261C66.1652 54.7121 65.1198 54.3828 64.0485 54.3828C62.9771 54.3828 61.9317 54.7121 61.0538 55.3261C60.1759 55.9401 59.508 56.8092 59.1405 57.8155C58.773 58.8218 58.7237 59.9167 58.9993 60.952C59.2749 61.9872 59.8621 62.9128 60.6813 63.6031C59.1776 64.0827 57.8651 65.0275 56.9333 66.3014C56.0014 67.5753 55.4984 69.1123 55.4969 70.6906V72.925C55.4969 73.1322 55.5792 73.3309 55.7257 73.4774C55.8722 73.624 56.0709 73.7063 56.2781 73.7063H71.8188C72.026 73.7063 72.2247 73.624 72.3712 73.4774C72.5177 73.3309 72.6 73.1322 72.6 72.925V70.6906C72.5985 69.1123 72.0955 67.5753 71.1636 66.3014C70.2318 65.0275 68.9194 64.0827 67.4156 63.6031V63.6031ZM60.3875 59.6156C60.3875 58.9083 60.5923 58.2162 60.9772 57.6227C61.3621 57.0293 61.9106 56.56 62.5564 56.2716C63.2023 55.9831 63.9178 55.8879 64.6166 55.9973C65.3154 56.1067 65.9676 56.4161 66.4943 56.8882C67.021 57.3602 67.3998 57.9747 67.5849 58.6573C67.77 59.34 67.7534 60.0617 67.5372 60.7351C67.321 61.4086 66.9145 62.0051 66.3666 62.4524C65.8188 62.8998 65.1531 63.179 64.45 63.2563H63.6531C62.7556 63.1585 61.9257 62.7329 61.3225 62.0611C60.7193 61.3893 60.3852 60.5185 60.3844 59.6156H60.3875ZM71.0406 72.1438H57.0594V70.6906C57.061 69.1338 57.6802 67.6413 58.781 66.5404C59.8819 65.4396 61.3745 64.8204 62.9313 64.8188H65.1656C66.7225 64.8204 68.215 65.4396 69.3159 66.5404C70.4167 67.6413 71.0359 69.1338 71.0375 70.6906L71.0406 72.1438Z" fill="#263238"/>
<path d="M73.75 50.4406H54.3469C53.3111 50.4414 52.318 50.8532 51.5856 51.5856C50.8533 52.318 50.4414 53.3111 50.4406 54.3468V73.7499C50.4414 74.7857 50.8533 75.7788 51.5856 76.5111C52.318 77.2435 53.3111 77.6553 54.3469 77.6562H73.75C74.7857 77.6553 75.7788 77.2435 76.5112 76.5111C77.2436 75.7788 77.6554 74.7857 77.6562 73.7499V54.3468C77.6554 53.3111 77.2436 52.318 76.5112 51.5856C75.7788 50.8532 74.7857 50.4414 73.75 50.4406V50.4406ZM76.0937 73.7499C76.0929 74.3713 75.8457 74.9669 75.4064 75.4063C74.967 75.8457 74.3713 76.0928 73.75 76.0937H54.3469C53.7255 76.0928 53.1299 75.8457 52.6905 75.4063C52.2511 74.9669 52.0039 74.3713 52.0031 73.7499V54.3468C52.0039 53.7255 52.2511 53.1298 52.6905 52.6904C53.1299 52.2511 53.7255 52.0039 54.3469 52.0031H73.75C74.3713 52.0039 74.967 52.2511 75.4064 52.6904C75.8457 53.1298 76.0929 53.7255 76.0937 54.3468V73.7499Z" fill="#263238"/>
<path d="M43.125 69.0187C43.1976 69.0915 43.2838 69.1492 43.3787 69.1886C43.4736 69.228 43.5754 69.2483 43.6781 69.2483C43.7809 69.2483 43.8827 69.228 43.9776 69.1886C44.0725 69.1492 44.1587 69.0915 44.2313 69.0187L48.65 64.6C48.7228 64.5274 48.7805 64.4412 48.8199 64.3463C48.8593 64.2514 48.8795 64.1496 48.8795 64.0469C48.8795 63.9441 48.8593 63.8423 48.8199 63.7474C48.7805 63.6525 48.7228 63.5663 48.65 63.4937L44.2281 59.0625C44.0814 58.9158 43.8825 58.8334 43.675 58.8334C43.4676 58.8334 43.2686 58.9158 43.1219 59.0625C42.9752 59.2092 42.8928 59.4081 42.8928 59.6156C42.8928 59.8231 42.9752 60.022 43.1219 60.1687L46.2063 63.2562H31.9031C31.6959 63.2562 31.4972 63.3385 31.3507 63.4851C31.2042 63.6316 31.1219 63.8303 31.1219 64.0375C31.1219 64.2447 31.2042 64.4434 31.3507 64.5899C31.4972 64.7364 31.6959 64.8187 31.9031 64.8187H46.2094L43.125 67.9156C42.979 68.062 42.8971 68.2604 42.8971 68.4672C42.8971 68.6739 42.979 68.8723 43.125 69.0187V69.0187Z" fill="#263238"/>
<path d="M58.3219 38.1812C58.5291 38.1812 58.7278 38.0989 58.8743 37.9524C59.0208 37.8059 59.1031 37.6072 59.1031 37.4V33.025L69.2188 43.1406C69.3655 43.2873 69.5644 43.3697 69.7719 43.3697C69.9794 43.3697 70.1783 43.2873 70.325 43.1406C70.4717 42.9939 70.5541 42.7949 70.5541 42.5875C70.5541 42.38 70.4717 42.181 70.325 42.0343L60.2094 31.9187H64.5844C64.7916 31.9187 64.9903 31.8364 65.1368 31.6899C65.2833 31.5434 65.3656 31.3447 65.3656 31.1375C65.3656 30.9303 65.2833 30.7315 65.1368 30.585C64.9903 30.4385 64.7916 30.3562 64.5844 30.3562H58.3344C58.1272 30.3562 57.9285 30.4385 57.782 30.585C57.6355 30.7315 57.5531 30.9303 57.5531 31.1375V37.3875C57.5515 37.4901 57.5701 37.592 57.6078 37.6874C57.6455 37.7828 57.7017 37.8699 57.7731 37.9436C57.8445 38.0173 57.9297 38.0762 58.0239 38.117C58.118 38.1578 58.2193 38.1796 58.3219 38.1812V38.1812Z" fill="#263238"/>
<path d="M22.2281 30.5968C22.1555 30.5241 22.0693 30.4664 21.9744 30.427C21.8795 30.3876 21.7778 30.3673 21.675 30.3673C21.5722 30.3673 21.4705 30.3876 21.3756 30.427C21.2806 30.4664 21.1944 30.5241 21.1219 30.5968L11.0094 40.7125V36.3375C11.0094 36.1303 10.9271 35.9315 10.7805 35.785C10.634 35.6385 10.4353 35.5562 10.2281 35.5562C10.0209 35.5562 9.8222 35.6385 9.67569 35.785C9.52918 35.9315 9.44687 36.1303 9.44687 36.3375V42.5875C9.44687 42.7947 9.52918 42.9934 9.67569 43.1399C9.8222 43.2864 10.0209 43.3687 10.2281 43.3687H16.4781C16.6853 43.3687 16.884 43.2864 17.0305 43.1399C17.1771 42.9934 17.2594 42.7947 17.2594 42.5875C17.2594 42.3803 17.1771 42.1816 17.0305 42.035C16.884 41.8885 16.6853 41.8062 16.4781 41.8062H12.1031L22.2187 31.6906C22.3631 31.5458 22.445 31.3501 22.4468 31.1456C22.4485 30.9411 22.37 30.7441 22.2281 30.5968V30.5968Z" fill="#263238"/>
<path d="M74.1625 19.0625H72.9125V17.8125C72.9125 17.7296 72.8796 17.6501 72.821 17.5915C72.7624 17.5329 72.6829 17.5 72.6 17.5C72.5171 17.5 72.4376 17.5329 72.379 17.5915C72.3204 17.6501 72.2875 17.7296 72.2875 17.8125V19.0625H71.0375C70.9546 19.0625 70.8751 19.0954 70.8165 19.154C70.7579 19.2126 70.725 19.2921 70.725 19.375C70.725 19.4579 70.7579 19.5374 70.8165 19.596C70.8751 19.6546 70.9546 19.6875 71.0375 19.6875H72.2875V20.9375C72.2875 21.0204 72.3204 21.0999 72.379 21.1585C72.4376 21.2171 72.5171 21.25 72.6 21.25C72.6829 21.25 72.7624 21.2171 72.821 21.1585C72.8796 21.0999 72.9125 21.0204 72.9125 20.9375V19.6875H74.1625C74.2454 19.6875 74.3249 19.6546 74.3835 19.596C74.4421 19.5374 74.475 19.4579 74.475 19.375C74.475 19.2921 74.4421 19.2126 74.3835 19.154C74.3249 19.0954 74.2454 19.0625 74.1625 19.0625Z" fill="#FFDD00"/>
<path d="M62.1031 12.0313C61.7323 12.0313 61.3698 11.9213 61.0614 11.7153C60.7531 11.5092 60.5128 11.2164 60.3708 10.8738C60.2289 10.5312 60.1918 10.1542 60.2641 9.79046C60.3365 9.42674 60.5151 9.09265 60.7773 8.83043C61.0395 8.5682 61.3736 8.38963 61.7373 8.31728C62.101 8.24493 62.478 8.28206 62.8207 8.42398C63.1633 8.56589 63.4561 8.80621 63.6621 9.11456C63.8681 9.4229 63.9781 9.78541 63.9781 10.1563C63.9781 10.6535 63.7806 11.1304 63.4289 11.4821C63.0773 11.8337 62.6004 12.0313 62.1031 12.0313V12.0313ZM62.1031 8.90625C61.8559 8.90625 61.6142 8.97956 61.4087 9.11691C61.2031 9.25427 61.0429 9.44949 60.9483 9.6779C60.8537 9.9063 60.8289 10.1576 60.8771 10.4001C60.9254 10.6426 61.0444 10.8653 61.2192 11.0401C61.394 11.2149 61.6168 11.334 61.8593 11.3822C62.1017 11.4305 62.3531 11.4057 62.5815 11.3111C62.8099 11.2165 63.0051 11.0563 63.1425 10.8507C63.2798 10.6452 63.3531 10.4035 63.3531 10.1563C63.3531 9.82473 63.2214 9.50679 62.987 9.27237C62.7526 9.03795 62.4346 8.90625 62.1031 8.90625Z" fill="#40BDFF"/>
<path d="M47.9687 46.525C47.5979 46.525 47.2354 46.4151 46.9271 46.209C46.6187 46.003 46.3784 45.7102 46.2365 45.3676C46.0946 45.0249 46.0574 44.6479 46.1298 44.2842C46.2021 43.9205 46.3807 43.5864 46.6429 43.3242C46.9051 43.062 47.2392 42.8834 47.603 42.8111C47.9667 42.7387 48.3437 42.7758 48.6863 42.9178C49.0289 43.0597 49.3217 43.3 49.5278 43.6083C49.7338 43.9167 49.8437 44.2792 49.8437 44.65C49.8437 45.1473 49.6462 45.6242 49.2946 45.9759C48.9429 46.3275 48.466 46.525 47.9687 46.525ZM47.9687 43.4C47.7215 43.4 47.4798 43.4733 47.2743 43.6107C47.0687 43.748 46.9085 43.9433 46.8139 44.1717C46.7193 44.4001 46.6945 44.6514 46.7428 44.8939C46.791 45.1364 46.91 45.3591 47.0849 45.5339C47.2597 45.7087 47.4824 45.8278 47.7249 45.876C47.9674 45.9242 48.2187 45.8995 48.4471 45.8049C48.6755 45.7103 48.8707 45.5501 49.0081 45.3445C49.1454 45.1389 49.2187 44.8973 49.2187 44.65C49.2187 44.3185 49.0871 44.0006 48.8526 43.7661C48.6182 43.5317 48.3003 43.4 47.9687 43.4Z" fill="#FFDD00"/>
<path d="M72.6 35.625C72.2292 35.625 71.8667 35.515 71.5583 35.309C71.25 35.103 71.0096 34.8101 70.8677 34.4675C70.7258 34.1249 70.6887 33.7479 70.761 33.3842C70.8334 33.0205 71.012 32.6864 71.2742 32.4242C71.5364 32.162 71.8705 31.9834 72.2342 31.911C72.5979 31.8387 72.9749 31.8758 73.3175 32.0177C73.6602 32.1596 73.953 32.4 74.159 32.7083C74.365 33.0166 74.475 33.3792 74.475 33.75C74.475 34.2473 74.2775 34.7242 73.9258 35.0758C73.5742 35.4275 73.0973 35.625 72.6 35.625ZM72.6 32.5C72.3528 32.5 72.1111 32.5733 71.9055 32.7107C71.7 32.848 71.5398 33.0432 71.4452 33.2716C71.3505 33.5001 71.3258 33.7514 71.374 33.9939C71.4223 34.2363 71.5413 34.4591 71.7161 34.6339C71.8909 34.8087 72.1137 34.9278 72.3561 34.976C72.5986 35.0242 72.85 34.9995 73.0784 34.9048C73.3068 34.8102 73.502 34.65 73.6393 34.4445C73.7767 34.2389 73.85 33.9972 73.85 33.75C73.85 33.4185 73.7183 33.1005 73.4839 32.8661C73.2495 32.6317 72.9315 32.5 72.6 32.5Z" fill="#40BDFF"/>
<path d="M18.2969 22.8125H17.5L18.0719 22.2406C18.1231 22.1808 18.1498 22.1039 18.1468 22.0253C18.1437 21.9466 18.1111 21.872 18.0555 21.8164C17.9998 21.7607 17.9252 21.7281 17.8466 21.7251C17.7679 21.7221 17.691 21.7488 17.6312 21.8L17.0594 22.3719V21.5625C17.0594 21.4796 17.0265 21.4001 16.9678 21.3415C16.9092 21.2829 16.8298 21.25 16.7469 21.25C16.664 21.25 16.5845 21.2829 16.5259 21.3415C16.4673 21.4001 16.4344 21.4796 16.4344 21.5625V22.3719L15.8625 21.8C15.8027 21.7488 15.7258 21.7221 15.6472 21.7251C15.5685 21.7281 15.4939 21.7607 15.4383 21.8164C15.3826 21.872 15.35 21.9466 15.347 22.0253C15.3439 22.1039 15.3707 22.1808 15.4219 22.2406L15.9781 22.8125H15.1719C15.089 22.8125 15.0095 22.8454 14.9509 22.904C14.8923 22.9626 14.8594 23.0421 14.8594 23.125C14.8594 23.2079 14.8923 23.2874 14.9509 23.346C15.0095 23.4046 15.089 23.4375 15.1719 23.4375H15.9813L15.4063 24.0094C15.3551 24.0692 15.3283 24.1461 15.3313 24.2247C15.3344 24.3034 15.367 24.378 15.4226 24.4336C15.4783 24.4893 15.5529 24.5219 15.6315 24.5249C15.7102 24.5279 15.7871 24.5012 15.8469 24.45L16.4188 23.8781V24.6875C16.4188 24.7704 16.4517 24.8499 16.5103 24.9085C16.5689 24.9671 16.6484 25 16.7313 25C16.8141 25 16.8936 24.9671 16.9522 24.9085C17.0108 24.8499 17.0438 24.7704 17.0438 24.6875V23.8781L17.6156 24.45C17.6754 24.5012 17.7523 24.5279 17.831 24.5249C17.9096 24.5219 17.9842 24.4893 18.0399 24.4336C18.0955 24.378 18.1281 24.3034 18.1312 24.2247C18.1342 24.1461 18.1074 24.0692 18.0563 24.0094L17.5 23.4375H18.3094C18.3923 23.4375 18.4717 23.4046 18.5303 23.346C18.589 23.2874 18.6219 23.2079 18.6219 23.125C18.6219 23.0421 18.589 22.9626 18.5303 22.904C18.4717 22.8454 18.3923 22.8125 18.3094 22.8125H18.2969Z" fill="#40BDFF"/>
</svg>
