<svg width="81" height="101" viewBox="0 0 81 101" fill="none" xmlns="http://www.w3.org/2000/svg">
<path d="M65.3939 67.9652L40.2061 57.5162L15.1019 67.9652C8.40749 70.7407 0.708884 75.557 1.37833 85.1081V85.353C11.671 94.2509 25.3109 99.7203 40.2061 99.7203C55.1012 99.7203 68.7411 94.2509 79.1175 85.353V85.1081C79.7869 75.557 72.0883 70.7407 65.3939 67.9652Z" fill="white"/>
<path d="M40.2061 100.7C25.6457 100.7 11.5874 95.4755 0.625209 86.0877C0.374168 85.9245 0.290486 85.6796 0.290486 85.353V85.1081C-0.295277 77.1898 4.39083 71.2306 14.6835 66.9857L39.7877 56.5367C39.955 56.4551 40.1224 56.4551 40.3734 56.4551C40.4571 56.4551 40.6245 56.4551 40.7081 56.5367L65.8123 66.9857C76.0213 71.2306 80.7074 77.1898 80.2053 85.1081V85.353C80.2053 85.5979 80.038 85.9245 79.8706 86.0877C68.8248 95.5571 54.7665 100.7 40.2061 100.7ZM2.3825 84.8632C12.9262 93.7612 26.3151 98.6592 40.2061 98.6592C54.097 98.6592 67.5696 93.7612 78.0296 84.8632C78.448 77.8428 74.264 72.7816 64.8918 68.8632L40.2061 58.5775L15.4367 68.8632C6.06444 72.7816 1.88041 77.8428 2.3825 84.8632Z" fill="black"/>
<path d="M31.5033 52.8631L27.7377 62.8222L34.8505 83.312C36.6078 88.2916 43.888 88.2916 45.5616 83.312L52.6744 62.8222L48.8251 52.6182L31.5033 52.8631Z" fill="white"/>
<path d="M40.2061 88.1285C37.2772 88.1285 34.7668 86.4142 33.8463 83.6387L26.7335 63.1489C26.6498 62.904 26.6498 62.6591 26.7335 62.4959L30.4991 52.5367C30.6665 52.1285 31.0012 51.8836 31.5033 51.8836L48.8252 51.7203C49.2436 51.7203 49.662 51.9652 49.8293 52.3734L53.6786 62.5775C53.7623 62.8224 53.7623 63.0673 53.6786 63.2305L46.5658 83.7203C45.6453 86.4142 43.1349 88.1285 40.2061 88.1285ZM28.8255 62.904L35.771 83.0673C36.5241 85.353 38.5325 86.1693 40.1224 86.1693C41.7123 86.1693 43.7206 85.353 44.4738 83.0673L51.4192 62.904L47.9883 53.7612L32.0891 53.9244L28.8255 62.904Z" fill="black"/>
<path d="M43.637 64.3733H36.8588L39.1182 67.6386L34.6832 84.21L34.8505 84.6998C36.6078 89.6794 43.8043 89.6794 45.5616 84.6998L45.729 84.21L41.2939 67.6386L43.637 64.3733Z" fill="#DD7262"/>
<path d="M40.2061 88.9449C37.2773 88.9449 34.8505 87.2306 33.8464 84.5367L33.679 84.0469C33.5953 83.8837 33.5953 83.6388 33.679 83.4755L37.9467 67.802L35.9384 64.8632C35.6873 64.5367 35.6873 64.1285 35.8547 63.802C36.022 63.4755 36.3568 63.2306 36.7752 63.2306H43.5533C43.9717 63.2306 44.3064 63.4755 44.4738 63.802C44.6411 64.1285 44.6411 64.5367 44.3901 64.8632L42.3818 67.802L46.6495 83.4755C46.7331 83.6388 46.7331 83.8837 46.6495 84.0469L46.4821 84.5367C45.5616 87.2306 43.1349 88.9449 40.2061 88.9449ZM35.771 83.7204L35.8547 83.8836C36.6915 86.0877 38.6161 86.9041 40.2061 86.9041C41.796 86.9041 43.8043 86.0877 44.5575 83.8836L44.6411 83.7204L40.2897 67.8836C40.2061 67.6388 40.2898 67.3122 40.4571 67.0673L41.6286 65.353H38.7835L39.955 67.0673C40.1224 67.3122 40.2061 67.6388 40.1224 67.8836L35.771 83.7204Z" fill="black"/>
<path d="M28.4908 59.7205L22.4658 64.8633L23.5537 75.3123L27.7377 73.1898L25.3109 77.4347L38.1141 90.9041L40.2061 85.1082L28.4908 59.7205Z" fill="white"/>
<path d="M38.1141 91.8837C37.863 91.8837 37.5283 91.8021 37.3609 91.5572L24.5578 78.0878C24.2231 77.7613 24.2231 77.2715 24.3905 76.8633L25.0599 75.6388L23.9721 76.2103C23.6373 76.3735 23.3026 76.3735 22.9679 76.2103C22.6332 76.047 22.4658 75.7205 22.3821 75.3939L21.2943 64.8633C21.2943 64.5368 21.378 64.2103 21.629 63.9654L27.654 58.8225C27.905 58.5776 28.2398 58.496 28.5745 58.5776C28.9092 58.6592 29.1602 58.8225 29.3276 59.149L41.0429 84.5368C41.1265 84.7817 41.1265 85.0266 41.0429 85.2715L38.9509 90.9858C38.8672 91.3123 38.5325 91.5572 38.1977 91.6388C38.1977 91.8837 38.1141 91.8837 38.1141 91.8837ZM26.6498 77.2715L37.6956 88.945L39.1182 85.1899L28.1561 61.4348L23.6373 65.2715L24.4741 73.7613L27.2356 72.2919C27.654 72.047 28.1561 72.1286 28.4908 72.4552C28.8255 72.7817 28.9092 73.2715 28.6582 73.6796L26.6498 77.2715Z" fill="black"/>
<path d="M52.2561 5.51633C50.6661 5.51633 48.7415 1.76123 38.4488 1.76123C32.7585 1.76123 27.5703 4.04694 23.8884 7.80205C19.1186 12.6184 17.2776 19.5571 18.6165 26.0878L18.9512 27.8837C19.9554 27.8837 22.1311 27.3939 25.813 26.7408C33.8464 25.3531 41.4613 22.0878 47.9884 17.1082L50.2477 15.3939L56.1054 24.3735C57.5279 26.5776 58.7831 27.8837 61.3772 27.8837L61.8793 25.598C62.5487 22.1694 62.4651 18.6592 61.3772 15.3123C59.4526 10.0061 55.8543 5.51633 52.2561 5.51633Z" fill="#A88265"/>
<path d="M61.3772 28.9448C58.03 28.9448 56.5238 26.9857 55.1849 25.0265L49.9967 17.0265L48.5741 18.0061C42.047 22.9857 34.1811 26.3326 25.9804 27.802C24.8089 28.0469 23.8047 28.2102 22.8842 28.3734C20.8759 28.6999 19.7044 28.9448 18.9512 28.9448C18.4492 28.9448 18.0308 28.6183 17.9471 28.1285L17.5287 26.251C16.1061 19.1489 18.1981 11.9653 23.0516 7.0673C27.1519 2.98567 32.5911 0.699951 38.3651 0.699951C46.0637 0.699951 49.3272 2.74077 51.1682 3.88362C51.5866 4.12852 52.005 4.45505 52.1724 4.45505C56.6074 4.45505 60.4567 9.76117 62.214 15.0673C63.3856 18.4142 63.5529 22.1693 62.7998 25.8428L62.2977 28.1285C62.2977 28.6183 61.8793 28.9448 61.3772 28.9448ZM50.2477 14.4142C50.3314 14.4142 50.3314 14.4142 50.4151 14.4142C50.6661 14.4959 51.0009 14.6591 51.0845 14.904L56.9422 23.8836C58.1137 25.5979 58.9505 26.5775 60.5404 26.8224L60.7915 25.4346C61.4609 22.0877 61.2935 18.7408 60.2894 15.7204C58.4484 10.4142 55.1012 6.49587 52.2561 6.49587C51.5029 6.49587 50.9172 6.08771 50.0804 5.59791C48.4068 4.53669 45.5616 2.74077 38.4488 2.74077C33.2606 2.74077 28.3234 4.78158 24.6415 8.45505C20.2064 12.8632 18.2818 19.3938 19.6207 25.8428L19.788 26.7408C20.4575 26.6591 21.378 26.4959 22.4658 26.251C23.3863 26.0877 24.3905 25.9244 25.562 25.6795C33.5116 24.3734 41.0429 21.1897 47.3189 16.3734L49.5783 14.6591C49.7456 14.4959 49.9967 14.4142 50.2477 14.4142Z" fill="black"/>
<path d="M62.4651 28.3735C62.0467 27.8837 61.712 27.6388 61.4609 27.3939L61.3772 27.8837C58.7831 27.8837 57.5279 26.5776 56.1054 24.3735L50.2477 15.3939L47.9884 17.1082C41.545 22.0062 33.93 25.2715 25.813 26.7409C22.1311 27.3939 19.9554 27.8837 18.9512 27.8837L18.8675 27.4756C18.6165 27.6388 18.2818 27.9653 17.9471 28.3735C17.1939 29.1898 17.7797 31.4756 18.3655 33.3531C19.9554 38.3327 21.0432 38.8225 22.4658 38.5776C22.4658 38.5776 22.5495 38.5776 22.5495 38.496C22.5495 38.5776 22.6332 38.6592 22.6332 38.7409L23.0516 40.047C25.3946 47.4756 27.7377 54.0062 34.0137 58.7409L34.0974 58.8225C35.1016 59.7205 36.5241 60.2919 37.9467 60.2919H40.2061H42.5491C43.9717 60.2919 45.3106 59.8021 46.3984 58.8225L46.4821 58.7409C52.7581 54.0878 55.1012 47.5572 57.4442 40.1286L57.8626 38.8225C57.8626 38.7409 57.9463 38.6592 57.9463 38.5776C57.9463 38.5776 58.03 38.5776 58.03 38.6592C59.4526 38.9041 60.5404 38.4143 62.1304 33.4347C62.7161 31.4756 63.2182 29.2715 62.4651 28.3735Z" fill="#F4C2A1"/>
<path d="M42.5491 61.3529H37.863C36.1894 61.3529 34.5995 60.7815 33.3443 59.6386L33.2606 59.557C26.9009 54.659 24.4741 48.2917 21.9637 40.3733L21.7127 39.6386C19.788 39.557 18.6165 37.9243 17.2776 33.5978C16.2735 30.4141 16.1898 28.6182 17.1103 27.6386C17.5287 27.2305 17.8634 26.9039 18.1981 26.5774C18.4492 26.3325 18.8676 26.3325 19.2023 26.4141C19.3696 26.4958 19.537 26.5774 19.6207 26.7407C20.2901 26.659 21.2943 26.4958 22.4658 26.2509C23.3863 26.0876 24.3905 25.9243 25.562 25.6794C33.5116 24.3733 41.0429 21.1896 47.3189 16.3733L49.5783 14.659C49.8293 14.4958 50.0804 14.4141 50.4151 14.4958C50.6661 14.5774 51.0009 14.7407 51.0845 14.9856L56.9422 23.9652C58.1137 25.7611 59.0342 26.7407 60.6241 26.9039C60.7078 26.7407 60.8751 26.659 61.0425 26.5774C61.3772 26.4141 61.712 26.4958 62.0467 26.659C62.4651 26.9039 62.8835 27.3121 63.3019 27.8019C64.1387 28.7815 64.1387 30.5774 63.1345 33.7611C61.7956 38.0876 60.6241 39.7203 58.6995 39.8019L58.4484 40.5366C55.938 48.455 53.5113 54.9039 47.1516 59.7203H47.0679C45.8127 60.7815 44.2227 61.3529 42.5491 61.3529ZM22.4658 37.5978C22.8842 37.5978 23.3026 37.9243 23.47 38.3325L23.9721 39.8835C26.3988 47.4754 28.6582 53.5978 34.5995 58.0876L34.6832 58.1692C34.6832 58.1692 34.7668 58.1692 34.7668 58.2509C35.6036 58.9856 36.6915 59.4754 37.863 59.4754H42.5491C43.7207 59.4754 44.8085 59.0672 45.6453 58.2509C45.6453 58.2509 45.729 58.2509 45.729 58.1692L45.8127 58.0876C51.6703 53.5978 54.0134 47.4754 56.4401 39.8835L56.9422 38.4141C57.1095 37.8427 57.6953 37.5162 58.1974 37.6794H58.2811C58.3647 37.6794 58.4484 37.6794 58.5321 37.6794C58.8668 37.6794 59.7036 37.6794 61.1262 33.108C62.1304 29.7611 61.7956 29.1896 61.7119 29.108C61.7119 29.0264 61.6283 29.0264 61.6283 28.9447C61.5446 28.9447 61.4609 28.9447 61.3772 28.9447C58.03 28.9447 56.5238 26.9856 55.1849 25.0264L49.9967 17.0264L48.5741 18.006C42.047 22.9856 34.1811 26.3325 25.9804 27.8019C24.8089 28.0468 23.8047 28.2101 22.8842 28.3733C20.8759 28.6998 19.7044 28.9447 18.9512 28.9447C18.8676 28.9447 18.8676 28.9447 18.7839 28.9447L18.7002 29.0264C18.6165 29.108 18.2818 29.6794 19.286 33.0264C20.7085 37.5978 21.5453 37.5978 21.88 37.5978C21.9637 37.5978 22.0474 37.5978 22.1311 37.5978H22.2148C22.2985 37.5978 22.3821 37.5978 22.4658 37.5978Z" fill="black"/>
<path d="M41.3776 68.6999H39.1182C38.5325 68.6999 38.1141 68.2101 38.1141 67.7203C38.1141 67.2305 38.6161 66.7407 39.1182 66.7407H41.3776C41.9634 66.7407 42.3818 67.2305 42.3818 67.7203C42.3818 68.2101 41.8797 68.6999 41.3776 68.6999Z" fill="black"/>
<path d="M16.8592 95.9652C16.2735 95.9652 15.8551 95.5571 15.8551 94.9856L15.5203 88.455C15.5203 87.8836 15.9387 87.3938 16.5245 87.3938C17.1103 87.3938 17.6123 87.802 17.6123 88.3734L17.9471 94.904C17.9471 95.4754 17.445 95.9652 16.8592 95.9652Z" fill="black"/>
<path d="M63.5529 95.7203C62.9672 95.7203 62.4651 95.2305 62.5488 94.6591L62.8835 88.3734C62.8835 87.802 63.3856 87.3938 63.9713 87.3938C64.5571 87.3938 64.9755 87.8836 64.9755 88.455L64.6408 94.7407C64.5571 95.3122 64.1387 95.7203 63.5529 95.7203Z" fill="black"/>
<path d="M51.5029 59.7205L56.6074 64.7817L56.8585 75.3123L52.6745 73.1898L55.1012 77.4347L35.52 94.9041L40.2061 85.1082L51.5029 59.7205Z" fill="white"/>
<path opacity="0.2" d="M65.3939 67.9654L56.5238 64.2919L51.5029 59.7205L50.0804 55.3939L47.57 57.9245L49.9967 63.0674L56.7748 68.7817C63.4692 71.5572 71.3352 75.5572 70.6658 85.1082L70.5821 90.9041L79.0338 85.3531V85.1082C79.7869 75.5572 72.0883 70.7409 65.3939 67.9654Z" fill="black"/>
<path d="M35.52 95.9652C35.2689 95.9652 35.1016 95.8836 34.9342 95.802C34.5158 95.4754 34.4321 94.9856 34.5995 94.5775L39.2856 84.7816L50.5824 59.3938C50.7498 59.0673 51.0008 58.8224 51.3356 58.8224C51.6703 58.7407 52.005 58.904 52.2561 59.1489L57.3606 64.2101C57.5279 64.3734 57.6953 64.6183 57.6953 64.9448L57.8626 75.4754C57.8626 75.802 57.6953 76.2101 57.3606 76.3734C57.0258 76.5367 56.6911 76.5367 56.3564 76.3734L55.2685 75.7203L55.938 76.9448C56.189 77.353 56.1054 77.8428 55.7706 78.1693L36.2731 95.7203C36.022 95.8836 35.771 95.9652 35.52 95.9652ZM51.8377 61.5163L41.1266 85.5163L38.6998 90.6591L53.7623 77.1897L51.754 73.6795C51.5029 73.2714 51.5866 72.7816 51.9213 72.455C52.2561 72.1285 52.7581 72.0469 53.1765 72.2918L55.7706 73.5979L55.6033 65.1897L51.8377 61.5163Z" fill="black"/>
<path d="M35.52 100.128C34.9342 100.128 34.5158 99.6386 34.5158 99.1488V94.9856C34.5158 94.4141 35.0179 94.006 35.52 94.006C36.022 94.006 36.5241 94.4958 36.5241 94.9856V99.1488C36.6078 99.6386 36.1057 100.128 35.52 100.128Z" fill="black"/>
<path opacity="0.2" d="M47.57 57.9243C53.0092 53.2713 55.1849 47.0672 57.4442 40.1284L57.8626 38.8223C57.8626 38.7407 57.9463 38.659 57.9463 38.5774C57.9463 38.5774 58.03 38.5774 58.03 38.659C59.4526 38.9039 60.5404 38.4141 62.1303 33.4345C62.7161 31.557 63.3019 29.2713 62.5488 28.455C62.1303 27.9652 61.7956 27.7203 61.5446 27.4754L61.8793 25.6794C62.5488 22.2509 62.4651 18.7407 61.3772 15.3937C59.7873 10.5774 56.6911 6.49577 53.5113 5.67944C59.1179 21.5162 55.7706 42.5774 47.57 57.9243Z" fill="black"/>
</svg>
