<svg width="81" height="101" viewBox="0 0 81 101" fill="none" xmlns="http://www.w3.org/2000/svg">
<path d="M32.879 100.7C20.0071 100.7 9.45519 89.2994 9.45519 75.2114V38.0779H11.7003V75.2114C11.7003 87.915 21.2045 98.257 32.879 98.257C44.5534 98.257 54.0576 87.915 54.0576 75.2114V63.8108H56.3027V75.2929C56.3027 89.2994 45.8256 100.7 32.879 100.7Z" fill="black"/>
<path d="M55.1053 59.5762C41.7096 59.5762 30.7835 47.7684 30.7835 33.1104V13.6479C30.7835 8.02901 34.9744 3.46875 40.1381 3.46875V7.54041C37.0698 7.54041 34.5253 10.3091 34.5253 13.6479V33.1104C34.5253 45.4883 43.7302 55.5046 55.1053 55.5046C66.4804 55.5046 75.6853 45.4883 75.6853 33.1104V13.6479C75.6853 10.3091 73.1409 7.54041 70.0726 7.54041V3.46875C75.2363 3.46875 79.4271 8.02901 79.4271 13.6479V33.1104C79.4271 47.7684 68.501 59.5762 55.1053 59.5762Z" fill="#0F9EEF"/>
<path d="M55.1053 60.6348C41.1858 60.6348 29.8107 48.3384 29.8107 33.1104V13.6478C29.8107 7.45889 34.4505 2.41003 40.1381 2.41003H41.0361V8.51753H40.1381C37.5936 8.51753 35.4982 10.7977 35.4982 13.5664V33.0289C35.4234 44.9182 44.2541 54.5273 55.1053 54.5273C65.9566 54.5273 74.7124 44.9182 74.7124 33.1918V13.6478C74.7124 10.8791 72.617 8.59896 70.0726 8.59896H69.1746V2.49147H70.0726C75.7602 2.49147 80.4 7.54033 80.4 13.7293V33.1918C80.3252 48.2569 69.0249 60.6348 55.1053 60.6348ZM39.1652 4.60873C34.9744 5.09733 31.6816 9.00613 31.6816 13.7293V33.1918C31.6816 47.1983 42.1587 58.599 55.0305 58.599C67.9023 58.599 78.3794 47.1983 78.3794 33.1918V13.6478C78.3794 8.92469 75.0866 5.0159 70.8958 4.5273V6.64456C74.0389 7.13316 76.5085 10.1462 76.5085 13.7293V33.1918C76.5085 46.1397 66.8546 56.6446 54.9557 56.6446C43.0567 56.6446 33.6273 46.0582 33.6273 33.1104V13.6478C33.6273 10.0648 36.0969 7.05173 39.24 6.56313V4.60873H39.1652Z" fill="black"/>
<path d="M55.1053 48.4198C43.2064 48.4198 33.5525 37.9149 33.5525 24.967H35.4234C35.4234 36.7749 44.2541 46.384 55.1053 46.384C65.9566 46.384 74.7124 36.7749 74.7124 25.0485H76.5833C76.5833 37.9149 67.0043 48.4198 55.1053 48.4198Z" fill="black"/>
<path d="M42.2335 8.92461L39.7639 7.54025V3.46858L42.2335 2.16565C44.4786 0.944154 47.2475 2.73569 47.2475 5.50442C47.2475 8.35458 44.4786 10.1461 42.2335 8.92461Z" fill="#0F9EEF"/>
<path opacity="0.2" d="M42.2335 8.92461L39.7639 7.54025V3.46858L42.2335 2.16565C44.4786 0.944154 47.2475 2.73569 47.2475 5.50442C47.2475 8.35458 44.4786 10.1461 42.2335 8.92461Z" fill="black"/>
<path d="M43.7302 10.3091C43.0567 10.3091 42.3832 10.1462 41.7845 9.82046L38.791 8.1918V2.89864L41.7845 1.26997C42.3832 0.944239 43.0567 0.781372 43.7302 0.781372C46.125 0.781372 48.1456 2.89864 48.1456 5.58593C48.1456 8.27323 46.1998 10.3091 43.7302 10.3091ZM40.6619 6.9703L42.6077 8.02893C42.9819 8.1918 43.356 8.35466 43.7302 8.35466C44.9276 8.35466 46.2746 7.29603 46.2746 5.58593C46.2746 3.87583 45.0024 2.73577 43.7302 2.73577C43.356 2.73577 42.9819 2.8172 42.6077 3.0615L40.6619 4.12013V6.9703Z" fill="black"/>
<path d="M67.5282 8.92472L69.9978 7.62179V3.55013L67.5282 2.2472C65.2082 1.0257 62.5141 2.81723 62.5141 5.58596C62.5141 8.35469 65.2082 10.1462 67.5282 8.92472Z" fill="#0F9EEF"/>
<path opacity="0.2" d="M67.5282 8.92472L69.9978 7.62179V3.55013L67.5282 2.2472C65.2082 1.0257 62.5141 2.81723 62.5141 5.58596C62.5141 8.35469 65.2082 10.1462 67.5282 8.92472Z" fill="black"/>
<path d="M65.9566 10.3091C63.5618 10.3091 61.5412 8.19181 61.5412 5.50451C61.5412 2.81722 63.487 0.699951 65.9566 0.699951C66.6301 0.699951 67.3036 0.862818 67.9023 1.18855L70.8958 2.81722V8.11037L67.9023 9.73904C67.3036 10.1462 66.6301 10.3091 65.9566 10.3091ZM65.9566 2.73578C64.7592 2.73578 63.4122 3.79441 63.4122 5.50451C63.4122 7.21461 64.7592 8.27324 65.9566 8.27324C66.3308 8.27324 66.7049 8.19181 67.0791 7.94751L69.0249 6.88888V4.12015L67.0791 3.06151C66.7798 2.89865 66.4056 2.73578 65.9566 2.73578Z" fill="black"/>
<path d="M69.6236 51.7586C68.8004 50.5371 67.154 50.3742 65.9566 51.1885C62.7386 53.4686 58.9968 54.6901 55.1053 54.6901C51.2887 54.6901 47.6217 53.5501 44.4037 51.27C43.2064 50.4556 41.6348 50.6185 40.7368 51.84C39.8387 53.1429 40.1381 55.0159 41.4103 55.9116C43.9547 57.7032 46.7237 58.9247 49.6423 59.6576C51.3635 60.0647 52.5609 61.6934 52.5609 63.6478V73.9084C52.5609 75.2928 53.3841 76.5143 54.6563 76.7586C56.3775 77.1657 57.7994 75.6999 57.7994 73.9898V63.6478C57.7994 61.7748 58.9968 60.1462 60.718 59.6576C63.6367 58.9247 66.4056 57.6217 68.95 55.8302C70.2223 54.9344 70.5216 53.0615 69.6236 51.7586Z" fill="#0F9EEF"/>
<path d="M55.1802 77.8987C54.9557 77.8987 54.6563 77.8987 54.4318 77.8173C52.7854 77.4915 51.588 75.8629 51.588 73.9899V63.7293C51.588 62.2635 50.69 61.042 49.4178 60.7163C46.3495 59.9834 43.5057 58.6804 40.8864 56.8075C40.0632 56.2374 39.4645 55.2603 39.3149 54.2831C39.1652 53.2244 39.3897 52.1658 39.9884 51.27C40.6619 50.2928 41.7096 49.7228 42.8322 49.7228C43.5805 49.7228 44.2541 49.9671 44.9276 50.3743C47.9959 52.4915 51.5132 53.6316 55.1053 53.6316C58.7723 53.6316 62.3645 52.4915 65.4327 50.2928C66.0314 49.8857 66.7798 49.6414 67.5282 49.6414C68.6507 49.6414 69.6984 50.2114 70.3719 51.1072C70.9706 52.0029 71.1951 53.0616 71.0455 54.1202C70.8958 55.1788 70.2971 56.0746 69.4739 56.726C66.8546 58.599 64.0109 59.9834 60.9426 60.7163C59.6703 61.042 58.7723 62.2635 58.7723 63.6479V73.9899C58.7723 75.0485 58.3981 76.0257 57.7246 76.7586C57.0511 77.4915 56.153 77.8987 55.1802 77.8987ZM42.8322 51.8401C42.3083 51.8401 41.7845 52.0844 41.4851 52.4915C41.1858 52.8987 41.1109 53.3873 41.1858 53.8759C41.2606 54.3645 41.56 54.7717 41.9341 55.0974C44.3289 56.8075 47.023 58.029 49.8668 58.6804C52.037 59.169 53.5338 61.2049 53.5338 63.6479V73.9085C53.5338 74.8042 54.0576 75.6186 54.8808 75.7814C55.4795 75.9443 56.0034 75.7 56.4524 75.2928C56.7517 74.9671 56.9762 74.4785 56.9762 73.9899V63.6479C56.9762 61.2863 58.473 59.2505 60.6432 58.6804C63.487 57.9475 66.1811 56.726 68.5759 55.016C68.95 54.7717 69.2494 54.2831 69.3242 53.7945C69.3991 53.3059 69.3242 52.8173 69.0249 52.4101C68.501 51.6772 67.3785 51.5143 66.6301 52.0844C63.2625 54.5274 59.2962 55.7489 55.255 55.7489C51.2887 55.7489 47.3972 54.5274 44.0296 52.1658C43.5805 51.9215 43.2064 51.8401 42.8322 51.8401Z" fill="black"/>
<path d="M10.6526 48.257C15.8189 48.257 20.0071 43.6996 20.0071 38.0778C20.0071 32.456 15.8189 27.8987 10.6526 27.8987C5.48621 27.8987 1.29804 32.456 1.29804 38.0778C1.29804 43.6996 5.48621 48.257 10.6526 48.257Z" fill="#0F9EEF"/>
<path d="M10.6526 44.1853C13.7524 44.1853 16.2653 41.4509 16.2653 38.0778C16.2653 34.7048 13.7524 31.9703 10.6526 31.9703C7.55276 31.9703 5.03986 34.7048 5.03986 38.0778C5.03986 41.4509 7.55276 44.1853 10.6526 44.1853Z" fill="#0F9EEF"/>
<g opacity="0.5">
<path opacity="0.5" d="M10.6526 27.8987C5.48887 27.8987 1.29804 32.4589 1.29804 38.0778C1.29804 40.928 2.34575 43.4524 4.06698 45.3254L17.313 30.9931C15.5918 29.1202 13.2718 27.8987 10.6526 27.8987Z" fill="#0F9EEF"/>
</g>
<path d="M10.6526 49.3155C4.96501 49.3155 0.400002 44.2667 0.400002 38.0777C0.400002 31.8888 5.03985 26.84 10.6526 26.84C16.3401 26.84 20.98 31.8888 20.98 38.0777C20.98 44.2667 16.2653 49.3155 10.6526 49.3155ZM10.6526 28.9572C6.01272 28.9572 2.27091 33.0289 2.27091 38.0777C2.27091 43.1266 6.01272 47.1983 10.6526 47.1983C15.2924 47.1983 19.0342 43.1266 19.0342 38.0777C19.0342 33.0289 15.2924 28.9572 10.6526 28.9572Z" fill="black"/>
<path d="M10.6526 45.2439C7.06043 45.2439 4.14182 42.068 4.14182 38.0777C4.14182 34.0875 7.06043 30.9116 10.6526 30.9116C14.2447 30.9116 17.2382 34.0875 17.2382 38.0777C17.2382 42.068 14.2447 45.2439 10.6526 45.2439ZM10.6526 33.0289C8.10814 33.0289 6.01272 35.309 6.01272 38.0777C6.01272 40.8465 8.10814 43.1266 10.6526 43.1266C13.197 43.1266 15.2924 40.8465 15.2924 38.0777C15.2924 35.309 13.197 33.0289 10.6526 33.0289Z" fill="black"/>
</svg>
