<svg width="100" height="100" viewBox="0 0 100 100" fill="none" xmlns="http://www.w3.org/2000/svg">
<path d="M10.6313 96.875C10.965 80.9637 24.0113 68.125 40 68.125H60C75.9888 68.125 89.0363 80.9637 89.3688 96.875H10.6313Z" fill="#C2E8FF"/>
<path d="M60 68.75C75.4338 68.75 88.0662 80.975 88.7237 96.25H11.2762C11.9337 80.975 24.5662 68.75 40 68.75H60ZM60 67.5H40C23.4312 67.5 10 80.9312 10 97.5H90C90 80.9312 76.5688 67.5 60 67.5Z" fill="black"/>
<path d="M50 76.875C42.2112 76.875 38.635 70.9275 38.125 70V55.625H61.875V70.0012C61.355 70.9687 57.86 76.875 50 76.875Z" fill="#F4C2A1"/>
<path d="M61.25 56.25V69.84C60.5637 71.05 57.1962 76.25 50 76.25C42.8 76.25 39.4325 71.0437 38.75 69.8412V56.25H61.25ZM62.5 55H37.5V70.155C37.5 70.155 41.1075 77.5 50 77.5C58.8925 77.5 62.5 70.155 62.5 70.155V55Z" fill="black"/>
<path d="M67.8575 48.1613C64.5398 48.1613 61.8387 45.4612 61.8387 42.1438C61.8387 38.8263 64.5398 36.1262 67.8575 36.1262C70.1526 36.1262 71.6595 36.4282 72.5841 37.0151C73.4542 37.5674 73.875 38.4178 73.875 39.7638C73.875 41.404 73.1847 43.534 72.0482 45.254C70.9008 46.9904 69.4025 48.1613 67.8575 48.1613ZM32.1425 48.1613C30.5975 48.1613 29.0992 46.9904 27.9519 45.2539C26.8153 43.5338 26.125 41.4034 26.125 39.7625C26.125 38.4165 26.5458 37.5662 27.4159 37.0138C28.3405 36.4269 29.8474 36.125 32.1425 36.125C35.4602 36.125 38.1613 38.825 38.1613 42.1425C38.1613 45.4601 35.4601 48.1613 32.1425 48.1613Z" fill="#F4C2A1" stroke="black"/>
<path d="M61.465 42.1438C61.465 45.6686 64.3326 48.5363 67.8575 48.5363C69.6027 48.5363 71.2064 47.173 72.3349 45.5057C73.4794 43.8147 74.25 41.6503 74.25 39.7625C74.25 38.6015 73.9818 37.5257 72.932 36.7845C71.9375 36.0824 70.3277 35.75 67.8575 35.75C64.3315 35.75 61.4637 38.6175 61.465 42.1438ZM61.465 42.1438H61.965L61.465 42.1439C61.465 42.1439 61.465 42.1438 61.465 42.1438ZM38.785 42.1436V42.1438C38.785 45.8126 35.8114 48.7863 32.1425 48.7863C30.4119 48.7863 28.7578 47.552 27.5044 45.7213C26.2593 43.9027 25.5 41.6185 25.5 39.7625C25.5 38.8443 25.6857 38.1432 25.9952 37.6024C26.3036 37.0636 26.7525 36.6532 27.3293 36.3419C28.5054 35.7072 30.1829 35.5 32.1425 35.5C35.8114 35.5 38.7862 38.4737 38.785 42.1436ZM38.535 42.1425C38.535 38.6176 35.6674 35.75 32.1425 35.75C29.6723 35.75 28.0626 36.0824 27.0681 36.7843C26.0182 37.5253 25.75 38.6008 25.75 39.7613C25.75 41.649 26.5203 43.8134 27.6647 45.5044C28.793 47.1718 30.3967 48.535 32.1425 48.535C35.6674 48.535 38.535 45.6674 38.535 42.1425ZM61.215 42.1425C61.215 38.4736 64.1886 35.5 67.8575 35.5C69.8172 35.5 71.4947 35.7069 72.6707 36.3413C73.2475 36.6524 73.6964 37.0627 74.0048 37.6014C74.3143 38.1421 74.5 38.843 74.5 39.7613C74.5 41.6172 73.7407 43.9014 72.4956 45.72C71.2422 47.5507 69.5881 48.785 67.8575 48.785C64.1886 48.785 61.215 45.8114 61.215 42.1425Z" fill="#F4C2A1" stroke="black"/>
<path d="M50 66.875C48.3212 66.875 46.7025 66.2563 45.44 65.1338L45.3263 65.0325L45.18 64.995C36.61 62.7963 30.625 55.0888 30.625 46.25V23.0038C30.625 18.0925 34.62 14.0975 39.5312 14.0975H60.4688C65.38 14.0975 69.375 18.0925 69.375 23.0038V46.25C69.375 55.0888 63.39 62.7963 54.8212 64.995L54.675 65.0325L54.5612 65.1338C53.2987 66.2563 51.6775 66.875 50 66.875Z" fill="#F4C2A1"/>
<path d="M60.4688 14.7225C65.035 14.7225 68.75 18.4375 68.75 23.0038V46.25C68.75 54.8025 62.9587 62.2625 54.665 64.39L54.3713 64.465L54.145 64.6663C52.9975 65.6875 51.525 66.25 50 66.25C48.475 66.25 47.0025 65.6875 45.855 64.6663L45.6287 64.465L45.335 64.39C37.0413 62.2625 31.25 54.8025 31.25 46.25V23.0038C31.25 18.4375 34.965 14.7225 39.5312 14.7225H60.4688V14.7225ZM60.4688 13.4725H39.5312C34.2675 13.4725 30 17.74 30 23.0038V46.25C30 55.575 36.39 63.385 45.0238 65.6C46.3488 66.7788 48.0875 67.5 50 67.5C51.9125 67.5 53.6512 66.7788 54.9762 65.6C63.61 63.385 70 55.575 70 46.25V23.0038C70 17.74 65.7325 13.4725 60.4688 13.4725Z" fill="black"/>
<path d="M69.375 44.375V35C69.375 26.225 60.8375 21.545 60.4738 21.35L59.9887 21.09L59.6675 21.5388C59.615 21.6138 54.2125 29.0175 42.8737 29.0175C34.745 29.0175 30.6237 31.8713 30.6237 37.5V44.375H30.3975C29.54 42.4913 25.6237 33.4575 25.6237 25.7787C25.625 12.2287 34.9187 3.125 48.75 3.125C58.7962 3.125 61.8 9.95125 61.9237 10.2425L62.085 10.6237L62.5 10.625C66.91 10.625 74.375 13.66 74.375 25.0375C74.375 32.0663 70.4225 42.2787 69.58 44.375H69.375Z" fill="#A88265"/>
<path d="M48.75 3.75C58.3475 3.75 61.2312 10.2125 61.3462 10.4812L61.6675 11.25H62.5C63.6513 11.25 73.75 11.6375 73.75 25.0375C73.75 30.335 71.45 37.5162 70 41.5137V35C70 25.855 61.1463 21.0012 60.77 20.7987L59.8 20.2825L59.16 21.175C58.9487 21.47 53.8625 28.3912 42.8737 28.3912C37.0012 28.3925 30 29.9725 30 37.5V41.8437C28.56 38.2625 26.25 31.6087 26.25 25.7787C26.25 12.6025 35.2925 3.75 48.75 3.75ZM48.75 2.5C34.2025 2.5 25 12.4525 25 25.7787C25 34.605 30 45 30 45H31.25C31.25 45 31.25 39.9287 31.25 37.5C31.25 30.83 37.56 29.6425 42.875 29.6425C54.7 29.6425 60.1788 21.9012 60.1788 21.9012C60.1788 21.9012 68.75 26.4975 68.75 35C68.75 37.6712 68.75 45 68.75 45H70C70 45 75 33.0812 75 25.0375C75 13.7437 67.8088 10 62.5 10C62.5 10 59.3675 2.5 48.75 2.5Z" fill="black"/>
</svg>
